<svg width="183" height="34" viewBox="0 0 183 34" fill="none" xmlns="http://www.w3.org/2000/svg">
<g clip-path="url(#clip0_468_1901)">
<path d="M18.8633 20.3263C18.8633 20.0181 18.8435 19.7353 18.804 19.4818C18.7646 19.2282 18.6935 18.9806 18.5909 18.7426C18.4883 18.5047 18.3541 18.3057 18.1863 18.1458C18.0205 17.9859 17.8015 17.8552 17.5291 17.7577C17.2568 17.6602 16.943 17.6114 16.5838 17.6114H13.7498V28.11H14.6872V22.9865H16.4713L18.0205 28.11H19.0211L17.3791 22.8695C18.3659 22.5126 18.8613 21.6642 18.8613 20.3263H18.8633ZM17.8706 21.0225C17.8331 21.2332 17.7679 21.438 17.6771 21.633C17.5844 21.828 17.4462 21.9782 17.2607 22.0835C17.0752 22.1888 16.8483 22.2415 16.5818 22.2415H14.6931V18.3565H16.5818C16.795 18.3565 16.9825 18.3916 17.1443 18.4598C17.3041 18.53 17.4344 18.6217 17.5331 18.7368C17.6318 18.8518 17.7107 18.9962 17.7699 19.1678C17.8291 19.3394 17.8706 19.513 17.8942 19.6924C17.9159 19.8719 17.9278 20.0727 17.9278 20.297C17.9278 20.5701 17.91 20.8119 17.8725 21.0225H17.8706ZM28.5278 16.7533V8.127L26.9469 16.7533H25.7608L24.18 8.127V16.7533H22.5992V5.82172H24.7839L26.3509 14.1906L27.9179 5.82172H30.1027V16.7533H28.5218H28.5278ZM18.9619 5.82172H21.1467V16.7533H19.5658V8.127L17.985 16.7533H16.7989L15.2181 8.127V16.7533H13.6373V5.82172H15.822L17.391 14.1906L18.958 5.82172H18.9619ZM19.8342 17.6134H23.5682V18.3565H20.7717V22.3332H22.9682V23.0353H20.7717V28.11H19.8342V17.6114V17.6134ZM26.3726 26.3313H30.2428V34L0 33.9961V3.83434H3.87014V30.1715L26.3726 30.1754V26.3333V26.3313ZM37.4621 30.1657H33.5919V3.82459H11.1664V7.66672H7.29426V0H37.4621V30.1657ZM36.9805 31.4977C36.9075 31.3749 36.8187 31.2617 36.716 31.1603C36.6134 31.0589 36.499 30.9731 36.3746 30.899C36.2503 30.8249 36.1161 30.7703 35.972 30.7313C35.8279 30.6923 35.6799 30.6727 35.524 30.6727C35.3681 30.6727 35.2201 30.6923 35.078 30.7313C34.9359 30.7703 34.8017 30.8268 34.6774 30.899C34.553 30.9711 34.4405 31.0589 34.3379 31.1603C34.2353 31.2617 34.1484 31.3729 34.0735 31.4977C34.0004 31.6206 33.9432 31.7532 33.9037 31.8956C33.8643 32.038 33.8445 32.1842 33.8445 32.3383C33.8445 32.4924 33.8643 32.6387 33.9037 32.7791C33.9432 32.9195 34.0004 33.0521 34.0735 33.175C34.1465 33.2979 34.2353 33.4091 34.3379 33.5105C34.4405 33.6119 34.553 33.6977 34.6774 33.7718C34.8017 33.8459 34.9359 33.9005 35.078 33.9395C35.2201 33.9785 35.3701 33.9981 35.524 33.9981C35.678 33.9981 35.8279 33.9785 35.972 33.9395C36.1161 33.9005 36.2503 33.844 36.3746 33.7718C36.499 33.6996 36.6134 33.6119 36.716 33.5105C36.8187 33.4091 36.9075 33.2979 36.9805 33.175C37.0535 33.0521 37.1108 32.9195 37.1502 32.7771C37.1897 32.6348 37.2094 32.4885 37.2094 32.3364C37.2094 32.1842 37.1897 32.036 37.1502 31.8936C37.1108 31.7513 37.0535 31.6187 36.9805 31.4958V31.4977ZM36.9351 32.7264C36.8996 32.8513 36.8522 32.9683 36.7891 33.0755C36.7259 33.1848 36.6509 33.2823 36.5621 33.37C36.4733 33.4578 36.3746 33.5339 36.268 33.5963C36.1595 33.6587 36.0431 33.7075 35.9187 33.7426C35.7944 33.7777 35.6641 33.7933 35.528 33.7933C35.3918 33.7933 35.2635 33.7757 35.1392 33.7426C35.0148 33.7075 34.8984 33.6606 34.7918 33.5963C34.6853 33.5339 34.5886 33.4578 34.4997 33.37C34.4109 33.2823 34.3359 33.1848 34.2748 33.0755C34.2116 32.9663 34.1642 32.8513 34.1307 32.7264C34.0971 32.6016 34.0794 32.4729 34.0794 32.3364C34.0794 32.1999 34.0971 32.0711 34.1307 31.9444C34.1642 31.8176 34.2116 31.7006 34.2748 31.5933C34.3379 31.4841 34.4129 31.3866 34.4997 31.2969C34.5886 31.2071 34.6853 31.1311 34.7918 31.0687C34.8984 31.0063 35.0148 30.9575 35.1392 30.9224C35.2635 30.8873 35.3938 30.8697 35.528 30.8697C35.7312 30.8697 35.9207 30.9087 36.0983 30.9848C36.2759 31.0609 36.4319 31.1662 36.5621 31.2988C36.6943 31.4314 36.797 31.5874 36.8739 31.7649C36.9489 31.9424 36.9884 32.1335 36.9884 32.3364C36.9884 32.4709 36.9706 32.6016 36.9371 32.7264H36.9351ZM35.8575 32.508C35.8378 32.4846 35.8161 32.467 35.7904 32.4514C35.9523 32.4144 36.0746 32.3442 36.1575 32.2447C36.2384 32.1452 36.2799 32.0224 36.2799 31.88C36.2799 31.6947 36.2167 31.5543 36.0904 31.4607C35.9641 31.3651 35.7668 31.3183 35.5023 31.3183H34.8412V33.3486H35.2004V32.5431H35.3819C35.4214 32.5431 35.451 32.549 35.4707 32.5587C35.4905 32.5685 35.5063 32.5841 35.5201 32.6036L35.9858 33.2901C36.0095 33.3271 36.045 33.3466 36.0963 33.3466H36.4397L35.9148 32.586C35.897 32.5548 35.8793 32.5295 35.8615 32.5061L35.8575 32.508ZM35.4628 32.2837H35.1984V31.5913H35.5003C35.5793 31.5913 35.6464 31.5991 35.7016 31.6128C35.7569 31.6265 35.8003 31.6479 35.8339 31.6752C35.8674 31.7025 35.8911 31.7376 35.9049 31.7805C35.9187 31.8234 35.9266 31.8722 35.9266 31.9288C35.9266 32.0438 35.8911 32.1316 35.822 32.194C35.7529 32.2564 35.6326 32.2857 35.4628 32.2857V32.2837ZM61.4348 9.06901H62.7512L62.7157 9.15287L56.2049 24.7438H55.1096L55.0938 24.7067L48.5633 9.06901H49.8777L49.8935 9.10801L55.674 23.2459L61.4368 9.06901H61.4348ZM64.7149 9.06901H65.9839V24.7457H64.7149V9.06901ZM76.7496 17.1004C77.3062 16.8645 77.7877 16.5543 78.1805 16.1818C78.5732 15.8074 78.8791 15.3666 79.0903 14.8693C79.2995 14.3719 79.406 13.818 79.406 13.2193C79.406 11.8658 78.9442 10.8223 78.0305 10.1202C77.1226 9.42202 75.7411 9.06901 73.9275 9.06901H69.8382V24.7457H71.1072V17.7109H73.7419L79.406 24.7457H80.8862L74.9794 17.5646C75.6287 17.4808 76.2227 17.3247 76.7477 17.1004H76.7496ZM77.0101 15.8093C76.6352 16.1116 76.1714 16.3457 75.6306 16.5075C75.0859 16.6694 74.4623 16.7513 73.7735 16.7513H71.1112V10.0812H73.9294C75.3109 10.0812 76.3747 10.3465 77.0911 10.8711C77.8015 11.3918 78.1607 12.2032 78.1607 13.2837C78.1607 13.8141 78.062 14.2978 77.8667 14.721C77.6713 15.1423 77.3831 15.509 77.0101 15.8093ZM80.5586 9.06901H92.917V10.1475H87.3891V24.7457H86.1201V10.1475H80.5586V9.06901ZM105.627 9.06901H106.886V18.7485C106.886 19.6086 106.746 20.4238 106.471 21.1708C106.195 21.9177 105.792 22.5809 105.273 23.1367C104.754 23.6945 104.115 24.1372 103.373 24.4532C102.631 24.7711 101.786 24.931 100.863 24.931C99.9389 24.931 99.0942 24.7711 98.3522 24.4532C97.6101 24.1372 96.9707 23.6925 96.4517 23.1367C95.9326 22.5789 95.53 21.9177 95.2537 21.1708C94.9774 20.4238 94.8392 19.6086 94.8392 18.7485V9.06901H96.1083V18.7368C96.1083 19.4525 96.2168 20.1273 96.4339 20.7456C96.649 21.3619 96.9628 21.9041 97.3674 22.3585C97.77 22.811 98.2732 23.1718 98.8594 23.4312C99.4455 23.6906 100.12 23.8213 100.865 23.8213C101.609 23.8213 102.284 23.6925 102.87 23.437C103.456 23.1816 103.959 22.8227 104.368 22.3702C104.776 21.9158 105.092 21.3736 105.307 20.7592C105.522 20.141 105.633 19.4662 105.633 18.7504V9.07096L105.627 9.06901ZM115.656 9.10606L122.132 24.7438H120.841L120.825 24.7048L115.031 10.4147L109.246 24.7438H107.942L114.433 9.06706H115.639L115.654 9.10606H115.656ZM125.366 23.6652H132.818V24.7438H124.095V9.06901H125.364V23.6672L125.366 23.6652ZM142.662 23.6652H150.115V24.7438H141.393V9.06901H142.662V23.6672V23.6652ZM158.897 9.10606L165.372 24.7438H164.093L158.271 10.4147L152.499 24.7438H151.182L157.673 9.06706H158.879L158.895 9.10606H158.897ZM176.856 17.8845C176.239 17.2935 175.362 16.8957 174.253 16.6987C174.658 16.5778 175.029 16.4178 175.356 16.2228C175.757 15.9829 176.098 15.6943 176.373 15.3686C176.647 15.0428 176.86 14.682 177.006 14.2959C177.152 13.9097 177.227 13.504 177.227 13.0867C177.227 12.4587 177.121 11.8892 176.912 11.3918C176.7 10.8945 176.373 10.4654 175.937 10.1202C175.502 9.77502 174.944 9.51173 174.279 9.33425C173.618 9.15872 172.826 9.06901 171.926 9.06901H167.338V24.7457H172.505C173.345 24.7457 174.107 24.6462 174.768 24.4512C175.433 24.2562 176.002 23.9695 176.458 23.5989C176.916 23.2284 177.269 22.77 177.51 22.2356C177.748 21.7032 177.871 21.0947 177.871 20.4296C177.871 19.3843 177.529 18.5281 176.856 17.8845ZM175.037 15.3608C174.715 15.6553 174.295 15.8951 173.789 16.0746C173.282 16.254 172.663 16.3457 171.948 16.3457H168.607V10.0812H171.926C173.306 10.0812 174.34 10.3484 174.995 10.875C175.648 11.3996 175.98 12.1837 175.98 13.2076C175.98 13.6016 175.903 13.9897 175.751 14.3602C175.599 14.7308 175.36 15.0663 175.039 15.3608H175.037ZM176.623 20.4082C176.623 21.4536 176.274 22.2766 175.583 22.8519C174.891 23.4292 173.851 23.7218 172.493 23.7218H168.607V17.2935H172.505C173.156 17.2935 173.744 17.3676 174.257 17.512C174.766 17.6563 175.201 17.865 175.548 18.1341C175.895 18.4013 176.164 18.7309 176.347 19.1132C176.531 19.4954 176.625 19.9323 176.625 20.4121L176.623 20.4082Z" fill="#8B1C56"/>
<path d="M182.765 6.4107C182.69 6.28393 182.6 6.16691 182.493 6.06355C182.386 5.96018 182.27 5.87047 182.142 5.7944C182.013 5.71834 181.875 5.66178 181.727 5.62082C181.579 5.57987 181.425 5.56036 181.265 5.56036C181.106 5.56036 180.952 5.57987 180.806 5.62082C180.66 5.66178 180.521 5.71834 180.393 5.7944C180.265 5.87047 180.148 5.95823 180.044 6.06355C179.939 6.16886 179.848 6.28393 179.771 6.4107C179.697 6.53748 179.637 6.674 179.596 6.82027C179.554 6.96655 179.535 7.11867 179.535 7.27665C179.535 7.43463 179.554 7.58675 179.596 7.73107C179.637 7.8754 179.695 8.01192 179.771 8.13869C179.846 8.26546 179.937 8.38053 180.044 8.4839C180.148 8.58727 180.265 8.67698 180.393 8.75304C180.521 8.82911 180.66 8.88567 180.806 8.92662C180.952 8.96758 181.106 8.98708 181.265 8.98708C181.425 8.98708 181.579 8.96758 181.727 8.92662C181.875 8.88567 182.013 8.82911 182.142 8.75304C182.27 8.67698 182.386 8.58922 182.493 8.4839C182.6 8.38053 182.688 8.26546 182.765 8.13869C182.84 8.01192 182.898 7.8754 182.939 7.72912C182.98 7.58285 183 7.43268 183 7.27665C183 7.12062 182.98 6.96655 182.939 6.82027C182.898 6.674 182.84 6.53748 182.765 6.4107ZM182.718 7.67647C182.682 7.80519 182.633 7.92416 182.568 8.03533C182.503 8.14649 182.426 8.24791 182.335 8.33958C182.244 8.42929 182.144 8.5073 182.031 8.57361C181.921 8.63798 181.8 8.68868 181.67 8.72379C181.542 8.7589 181.408 8.77645 181.267 8.77645C181.127 8.77645 180.995 8.7589 180.867 8.72379C180.739 8.68868 180.62 8.63798 180.51 8.57361C180.399 8.50925 180.298 8.43124 180.208 8.33958C180.117 8.24986 180.04 8.14844 179.975 8.03533C179.912 7.92416 179.862 7.80324 179.827 7.67647C179.791 7.54774 179.775 7.41512 179.775 7.27665C179.775 7.13818 179.793 7.0036 179.827 6.87293C179.862 6.74421 179.912 6.62329 179.975 6.51017C180.038 6.399 180.117 6.29759 180.208 6.20397C180.298 6.11231 180.399 6.03429 180.51 5.96798C180.62 5.90362 180.739 5.85291 180.867 5.81781C180.995 5.7827 181.129 5.7632 181.267 5.7632C181.477 5.7632 181.672 5.8022 181.856 5.88217C182.039 5.96018 182.199 6.0694 182.333 6.20592C182.467 6.34244 182.576 6.50237 182.653 6.6857C182.732 6.86903 182.769 7.06601 182.769 7.2747C182.769 7.41317 182.752 7.54774 182.716 7.67451L182.718 7.67647ZM181.607 7.45218C181.587 7.42877 181.563 7.40927 181.538 7.39367C181.706 7.35466 181.832 7.28445 181.915 7.18108C181.998 7.07772 182.041 6.9529 182.041 6.80662C182.041 6.61549 181.976 6.47117 181.846 6.37365C181.715 6.27613 181.514 6.22737 181.24 6.22737H180.559V8.31812H180.928V7.48923H181.115C181.157 7.48923 181.187 7.49509 181.206 7.50484C181.226 7.51654 181.244 7.53214 181.258 7.55164L181.737 8.25961C181.761 8.29862 181.798 8.31812 181.852 8.31812H182.205L181.664 7.53604C181.646 7.50484 181.629 7.47753 181.609 7.45413L181.607 7.45218ZM181.2 7.22009H180.928V6.50822H181.238C181.321 6.50822 181.39 6.51602 181.445 6.52967C181.5 6.54333 181.546 6.56478 181.579 6.59209C181.613 6.61939 181.638 6.65645 181.652 6.69935C181.668 6.74226 181.674 6.79297 181.674 6.85148C181.674 6.97045 181.638 7.06211 181.567 7.12452C181.496 7.18693 181.372 7.22009 181.198 7.22009H181.2Z" fill="#8B1C56"/>
</g>
<defs>
<clipPath id="clip0_468_1901">
<rect width="183" height="34" fill="white"/>
</clipPath>
</defs>
</svg>
